<?xml version="1.0" standalone="no"?>
<!DOCTYPE svg PUBLIC "-//W3C//DTD SVG 20010904//EN"
 "http://www.w3.org/TR/2001/REC-SVG-20010904/DTD/svg10.dtd">
<svg version="1.0" xmlns="http://www.w3.org/2000/svg"
 width="24.000000pt" height="24.000000pt" viewBox="0 0 24.000000 24.000000"
 preserveAspectRatio="xMidYMid meet">

<g transform="translate(0.000000,24.000000) scale(0.100000,-0.100000)"
fill="#000000" stroke="none">
<path d="M92 204 c-30 -21 -29 -59 3 -80 23 -15 27 -15 50 0 32 21 33 59 3 80
-12 9 -25 16 -28 16 -3 0 -16 -7 -28 -16z m59 -20 c17 -21 0 -49 -31 -49 -31
0 -48 28 -31 49 8 9 21 16 31 16 10 0 23 -7 31 -16z"/>
<path d="M51 102 c-22 -41 -14 -60 29 -73 56 -17 120 2 120 34 0 13 -7 32 -15
43 -17 22 -20 12 -4 -17 16 -32 -5 -49 -61 -49 -57 0 -77 17 -60 50 6 12 9 24
7 27 -3 2 -10 -4 -16 -15z"/>
</g>
</svg>
