<?xml version="1.0" standalone="no"?>
<!DOCTYPE svg PUBLIC "-//W3C//DTD SVG 20010904//EN"
 "http://www.w3.org/TR/2001/REC-SVG-20010904/DTD/svg10.dtd">
<svg version="1.0" xmlns="http://www.w3.org/2000/svg"
 width="24.000000pt" height="24.000000pt" viewBox="0 0 24.000000 24.000000"
 preserveAspectRatio="xMidYMid meet">

<g transform="translate(0.000000,24.000000) scale(0.100000,-0.100000)"
fill="#000000" stroke="none">
<path d="M82 230 c-13 -6 -30 -26 -38 -46 -14 -33 -13 -38 10 -87 13 -29 34
-63 45 -77 l21 -25 21 25 c11 14 32 48 45 77 23 49 24 54 10 87 -20 49 -63 66
-114 46z m88 -30 c11 -11 20 -33 20 -48 0 -30 -53 -122 -70 -122 -17 0 -70 92
-70 122 0 37 32 68 70 68 17 0 39 -9 50 -20z"/>
<path d="M96 187 c-22 -16 -18 -55 7 -71 39 -24 79 44 41 71 -10 7 -21 13 -24
13 -3 0 -14 -6 -24 -13z m41 -18 c15 -15 5 -39 -17 -39 -22 0 -32 24 -17 39 6
6 14 11 17 11 3 0 11 -5 17 -11z"/>
</g>
</svg>
