<?xml version="1.0" standalone="no"?>
<!DOCTYPE svg PUBLIC "-//W3C//DTD SVG 20010904//EN"
 "http://www.w3.org/TR/2001/REC-SVG-20010904/DTD/svg10.dtd">
<svg version="1.0" xmlns="http://www.w3.org/2000/svg"
 width="24.000000pt" height="24.000000pt" viewBox="0 0 24.000000 24.000000"
 preserveAspectRatio="xMidYMid meet" fill="none">

<g transform="translate(0.000000,24.000000) scale(0.100000,-0.100000)"
fill="#000000" stroke="none">
<path d="M75 231 c-45 -20 -70 -60 -70 -112 0 -42 5 -53 33 -81 28 -28 39 -33
82 -33 43 0 54 5 82 33 28 28 33 39 33 82 0 42 -5 54 -31 81 -33 33 -92 46
-129 30z m94 -25 c47 -25 63 -83 37 -135 -35 -66 -137 -66 -172 0 -47 91 44
182 135 135z" fill="#515979"/>
<path d="M80 145 c-40 -41 -29 -48 12 -8 l28 27 28 -27 c41 -40 52 -33 12 8
-19 19 -37 35 -40 35 -3 0 -21 -16 -40 -35z"/>
<path d="M92 127 c-28 -30 -29 -67 -2 -67 11 0 20 7 20 15 0 8 5 15 10 15 6 0
10 -7 10 -15 0 -8 9 -15 20 -15 28 0 26 41 -3 68 -29 27 -29 27 -55 -1z"/>
</g>
</svg>
