<?xml version="1.0" standalone="no"?>
<!DOCTYPE svg PUBLIC "-//W3C//DTD SVG 20010904//EN"
 "http://www.w3.org/TR/2001/REC-SVG-20010904/DTD/svg10.dtd">
<svg version="1.0" xmlns="http://www.w3.org/2000/svg"
 width="32.000000pt" height="32.000000pt" viewBox="0 0 32.000000 32.000000"
 preserveAspectRatio="xMidYMid meet">

<g transform="translate(0.000000,32.000000) scale(0.100000,-0.100000)"
fill="#000000" stroke="none">
<path d="M120 308 c-114 -32 -151 -181 -64 -257 68 -60 154 -58 214 4 34 35
49 97 36 149 -9 37 -62 93 -94 100 -15 4 -34 9 -42 10 -8 2 -31 0 -50 -6z
m103 -102 c51 -59 54 -66 32 -66 -11 0 -15 -11 -15 -40 0 -39 -1 -40 -35 -40
-31 0 -35 3 -35 25 0 14 -4 25 -10 25 -5 0 -10 -11 -10 -25 0 -22 -4 -25 -35
-25 -34 0 -35 1 -35 40 0 29 -4 40 -15 40 -8 0 -15 3 -15 6 0 14 96 113 110
113 8 1 36 -24 63 -53z"/>
</g>
</svg>
