<?xml version="1.0" standalone="yes"?>
<svg xmlns="http://www.w3.org/2000/svg" width="32" height="32">
<path style="fill:#ffffff; stroke:none;" d="M0 0L0 32L15 32C9.20472 21.5512 -1.22962 10.8565 11 1L0 0z"/>
<path style="fill:#010101; stroke:none;" d="M18 32C20.3364 27.6101 23.1131 23.4542 25.331 19C36.2382 -2.90441 0.555343 -5.77534 4.74768 14C5.51776 17.6324 7.70919 20.8704 9.60108 24C11.8859 27.7796 13.6627 30.7242 18 32z"/>
<path style="fill:#ffffff; stroke:none;" d="M21 0L21 1C33.521 11.0914 22.1086 20.7779 18 32L32 32L32 0L21 0M11 13L12 13C13.7107 7.1245 18.2893 7.1245 20 13C22.335 5.56794 12.246 5.02063 11 13M12 14L13 15L12 14M19 14L20 15L19 14M14 15L14 16L18 16L14 15z"/>
</svg>
